<?xml version="1.0" encoding="UTF-8" standalone="no"?>
<!-- Created with Inkscape (http://www.inkscape.org/) -->

<svg
   xmlns:dc="http://purl.org/dc/elements/1.1/"
   xmlns:cc="http://creativecommons.org/ns#"
   xmlns:rdf="http://www.w3.org/1999/02/22-rdf-syntax-ns#"
   xmlns:svg="http://www.w3.org/2000/svg"
   xmlns="http://www.w3.org/2000/svg"
   xmlns:sodipodi="http://sodipodi.sourceforge.net/DTD/sodipodi-0.dtd"
   xmlns:inkscape="http://www.inkscape.org/namespaces/inkscape"
   version="1.1"
   id="svg344"
   xml:space="preserve"
   width="600.62488"
   height="740.92664"
   viewBox="0 0 600.62487 740.92662"
   sodipodi:docname="open-digit-p25-guides-es.svg"
   inkscape:version="0.92.3 (2405546, 2018-03-11)"><metadata
     id="metadata350"><rdf:RDF><cc:Work
         rdf:about=""><dc:format>image/svg+xml</dc:format><dc:type
           rdf:resource="http://purl.org/dc/dcmitype/StillImage" /><dc:title></dc:title></cc:Work></rdf:RDF></metadata><defs
     id="defs348"><clipPath
       clipPathUnits="userSpaceOnUse"
       id="clipPath362"><path
         d="M 0,841.89 H 595.276 V 0 H 0 Z"
         id="path360"
         inkscape:connector-curvature="0" /></clipPath><clipPath
       clipPathUnits="userSpaceOnUse"
       id="clipPath508"><path
         d="M 0,0 H 595.276 V 841.89 H 0 Z"
         id="path506"
         inkscape:connector-curvature="0" /></clipPath></defs><sodipodi:namedview
     pagecolor="#ffffff"
     bordercolor="#666666"
     borderopacity="1"
     objecttolerance="10"
     gridtolerance="10"
     guidetolerance="10"
     inkscape:pageopacity="0"
     inkscape:pageshadow="2"
     inkscape:window-width="1280"
     inkscape:window-height="961"
     id="namedview346"
     showgrid="false"
     fit-margin-top="0"
     fit-margin-left="0"
     fit-margin-right="0"
     fit-margin-bottom="0"
     inkscape:zoom="0.59465202"
     inkscape:cx="267.43119"
     inkscape:cy="502.38447"
     inkscape:window-x="-4"
     inkscape:window-y="-4"
     inkscape:window-maximized="1"
     inkscape:current-layer="g352" /><g
     id="g352"
     inkscape:groupmode="layer"
     inkscape:label="open-digit-p25-guides-es"
     transform="matrix(1.3333333,0,0,-1.3333333,-125.03311,817.09676)"><text
       transform="matrix(1,0,0,-1,120.8986,463.3701)"
       style="font-variant:normal;font-weight:bold;font-stretch:normal;font-size:11px;font-family:Apercu;-inkscape-font-specification:Apercu-Bold;writing-mode:lr-tb;fill:#3b31f5;fill-opacity:1;fill-rule:nonzero;stroke:none"
       id="text412"><tspan
         x="0 5.5528002 12.2826 18.583401 25.335199 32.131001 39.047798 42.443501 49.372398 55.969101 61.6451 64.758102 72.994904 80.031601 86.872498 93.373497 96.486504 103.4803 107.9133 111.0263 117.8661 122.9569 129.1246 135.79939 140.4964 143.8382 150.37"
         y="0"
         sodipodi:role="line"
         id="tspan410">Technology Code of Practice</tspan></text>
<text
       transform="matrix(1,0,0,-1,97.6666,449.3671)"
       style="font-variant:normal;font-weight:300;font-stretch:normal;font-size:11px;font-family:'Apercu Light';-inkscape-font-specification:Apercu-Light;writing-mode:lr-tb;fill:#000000;fill-opacity:1;fill-rule:nonzero;stroke:none"
       id="text424"><tspan
         x="0 6.5890002 9.526 14.5112 20.7064 24.9524 27.8894 34.205601 38.319599 41.256599 47.110802 51.337002 54.397202 58.458401 64.609596 68.8358 71.752998 77.484001 80.420998 84.481102 91.070099 94.007103 100.5323 106.8045 109.4577 116.2007 119.1377 126.0787 131.61391 136.0491 141.9803 148.2525 150.9277 157.43089 163.78011 169.51109 172.4481 177.4333 183.70551 186.38071 192.6848 198.81509 202.895"
         y="0"
         sodipodi:role="line"
         id="tspan414">A set of criteria to help Barcelona select </tspan><tspan
         x="-4.1360002 1.3772 8.0344 14.5706 19.0058 25.509001 32.0452 36.2714 39.188599 44.855801 48.917 55.153999 58.091 64.5942 71.449402 77.577499 84.078499 87.015503 91.076698 97.381897 103.1811 109.5523 115.9895 122.3277 125.0029 131.42909 136.8873 139.9585 146.1317 151.2467 154.1837 159.6859 166.0901 172.8331 175.7701 182.2403 188.47729 194.5603 200.97549 207.0475"
         y="14.003"
         sodipodi:role="line"
         id="tspan416">appropriate open technologies and defne </tspan><tspan
         x="0.34099999 4.3692002 10.8944 17.131399 20.068399 25.999599 32.458801 41.734001 50.877201 53.937401 58.086601 67.548798 73.678001 79.917198 84.055397 89.170403 92.107399 96.168602 102.7576 105.6946 112.1978 119.053 125.1822 131.6832 137.02921 141.9704 148.3867 154.46091 158.8961 164.8273 170.5825 173.8165 176.75349 183.2578 190.11189 196.2411 202.5771"
         y="28.006001"
         sodipodi:role="line"
         id="tspan418">the commitments to open-source, open </tspan><tspan
         x="2.0020001 6.9432001 11.1012 16.603399 23.007601 29.598801 35.133999 39.569199 46.083401 50.683601 53.9198 56.8568 59.676102 65.915298 69.976501 76.125504 80.560699 87.061699 93.916901 100.0659 104.5561 110.0363 116.4515 119.2037 121.4939 124.5541 128.9222 133.2254 136.46159 139.39861 144.3838 150.689 156.6312 162.7054 166.93159 169.99181 174.35989 179.4991 182.4361 187.93829 194.3425 200.9205"
         y="42.008999"
         sodipodi:role="line"
         id="tspan420">standards, interoperability, security and </tspan><tspan
         x="67.616997 71.722198 76.212402 81.7146 87.843803 92.708 99.409203 104.9444 109.3796 115.5088 121.913 127.8882 132.18919"
         y="56.012001"
         sodipodi:role="line"
         id="tspan422">transparency.</tspan></text>
<text
       transform="matrix(1,0,0,-1,359.7306,463.3591)"
       style="font-variant:normal;font-weight:bold;font-stretch:normal;font-size:11px;font-family:Apercu;-inkscape-font-specification:Apercu-Bold;writing-mode:lr-tb;fill:#3b31f5;fill-opacity:1;fill-rule:nonzero;stroke:none"
       id="text428"><tspan
         x="0 5.5528002 12.2826 18.583401 25.335199 32.131001 39.047798 42.443501 49.372398 55.969101 61.6451 64.758102 72.007103 78.849098 84.525101 87.527 94.333801 100.3838 103.4968 111.7336 117.5834 124.3792 130.97701 138.0258 145.0625 151.96831"
         y="0"
         sodipodi:role="line"
         id="tspan426">Technology Buying Handbook</tspan></text>
<text
       transform="matrix(1,0,0,-1,334.9916,449.3561)"
       style="font-variant:normal;font-weight:300;font-stretch:normal;font-size:11px;font-family:'Apercu Light';-inkscape-font-specification:Apercu-Light;writing-mode:lr-tb;fill:#000000;fill-opacity:1;fill-rule:nonzero;stroke:none"
       id="text438"><tspan
         x="0 6.6989999 9.7460003 14.8412 21.1464 25.502399 28.5494 34.975601 39.1996 42.246601 47.979801 54.141998 57.290199 63.870399 70.252602 72.652802 75.581001 82.106201 88.389397 93.614403 96.6614 100.8315 107.5305 110.5775 117.2127 123.5938 126.357 133.21001 136.257 143.308 148.9532 153.4984 159.5396 165.9218 168.707 175.32021 181.7794 187.62041 190.6674 195.7626 202.1096"
         y="0"
         sodipodi:role="line"
         id="tspan430">A set of guidelines to help Barcelona se-</tspan><tspan
         x="2.0680001 4.8509998 11.2662 17.5054 21.8636 24.910601 30.5338 37.300999 43.947201 48.492401 55.105598 61.751801 66.087997 69.115196 74.892403 79.063599 85.412804 88.459801 95.072998 102.0371 108.2763 114.8895 117.9365 122.1077 128.5229 134.4299 140.9111 147.4583 153.90649 156.6895 163.22459 168.7939 171.9729 178.2572 183.48331 186.5303 192.1425 198.65669 205.2347"
         y="14.003"
         sodipodi:role="line"
         id="tspan432">lect appropriate open technologies and </tspan><tspan
         x="0.088 4.2592001 10.6744 16.583599 23.0648 29.612 36.0602 38.845402 45.381599 51.576801 56.826 59.873001 64.968201 71.229401 76.027603 81.021599 84.202797 90.244003 96.527199 101.7544 104.8014 108.9726 115.6738 118.7208 124.509 129.5932 135.9644 139.1104 145.96561 149.0126 155.6566 160.2018 166.815 173.459 177.7952 180.97749 187.2816 191.5518 197.19701 202.2372 207.2092"
         y="28.006001"
         sodipodi:role="line"
         id="tspan434">technology services to avoid proprietary </tspan><tspan
         x="18.865 21.6502 28.461399 34.447601 40.024601 45.480598 48.409901 55.020901 58.067902 63.680099 70.195396 77.048401 80.095398 86.178398 88.9636 95.554802 100.65 107.0652 113.9182 116.9652 122.6104 127.1556 133.0648 139.425 142.5952 146.7664 153.18159 159.42081 163.592 169.7762 174.3214 180.6046 185.3148"
         y="42.008999"
         sodipodi:role="line"
         id="tspan436">lock-in and closed architectures.</tspan></text>
<text
       transform="matrix(1,0,0,-1,162.5116,309.3481)"
       style="font-variant:normal;font-weight:bold;font-stretch:normal;font-size:11px;font-family:Apercu;-inkscape-font-specification:Apercu-Bold;writing-mode:lr-tb;fill:#3b31f5;fill-opacity:1;fill-rule:nonzero;stroke:none"
       id="text442"><tspan
         x="0 7.9507999 14.0558 18.8188 24.8556 27.968599 34.326599 39.0214 44.114399 50.219398 54.8592 61.358002 67.955803"
         y="0"
         sodipodi:role="line"
         id="tspan440">Data Strategy</tspan></text>
<text
       transform="matrix(1,0,0,-1,95.3786,295.3451)"
       style="font-variant:normal;font-weight:300;font-stretch:normal;font-size:11px;font-family:'Apercu Light';-inkscape-font-specification:Apercu-Light;writing-mode:lr-tb;fill:#000000;fill-opacity:1;fill-rule:nonzero;stroke:none"
       id="text454"><tspan
         x="0 6.8442001 13.6752 16.9422 22.7854 29.7726 36.638802 41.403999 48.2812 54.388401 60.517601 67.447601 70.7146 75.105797 82.024803 85.291801 92.07 97.902199 104.6364 111.1946 113.8148 116.963 123.6422 129.53819 132.80521 137.16341 144.0186 150.5856 153.8526 159.8058 163.196 167.8952 173.6944 175.78661 181.2316 184.4986 191.4198 197.41701 201.9072 207.47321"
         y="0"
         sodipodi:role="line"
         id="tspan444">An approach to handling the city’s data </tspan><tspan
         x="10.032 18.064199 21.454399 25.812599 32.742599 36.009602 42.644798 50.676998 57.422199 63.9034 68.569603 73.708801 80.289001 83.283203 90.193398 93.757401 97.024399 103.8906 108.4468 111.804 117.0972 123.2044 129.5074 134.14059 137.70461 140.9716 146.2428 153.054 158.41319 164.89439 169.65961 176.2068 179.45399 185.4402 192.27119"
         y="14.003"
         sodipodi:role="line"
         id="tspan446">with ownership, privacy, sovereign-</tspan><tspan
         x="4.4439998 9.1431999 14.6102 17.877199 23.7094 30.4436 37.516602 40.7836 47.3088 51.667 58.2472 61.648399 67.865601 73.730797 76.909798 80.176804 86.657997 91.973198 98.540199 101.8072 109.5292 112.7962 115.9444 122.6126 129.37981 136.19099 141.48421 147.4814 151.6196 154.96581 161.799 168.63 171.897 177.8942 182.4702 185.7372 190.0954 196.95061 203.0226"
         y="28.006001"
         sodipodi:role="line"
         id="tspan448">ty and ethical use &amp; innovation at the </tspan><tspan
         x="-1.034 5.2272 11.8514 16.6166 22.701799 26.320801 29.587799 37.334 43.870201 48.129398 51.277599 58.0228 64.526001 69.971001 73.237999 81.006203 87.003403 91.493599 97.554604 100.8216 106.6868 111.452 117.5812 124.1614 127.5516 131.94279 138.578 145.0372 149.42841 155.8326 160.59779 167.16479 170.43179 176.26401 182.9982 190.0712 193.3382 196.4864 203.3174"
         y="42.008999"
         sodipodi:role="line"
         id="tspan450">core. Defines Data architecture and in-</tspan><tspan
         x="-1.969 2.0042 6.8243999 12.7666 18.0378 22.473 27.4032 34.148399 40.607601 44.998798 51.403 56.168201 62.735199 66.002197 70.0634 76.687599 81.571602 84.8386 92.109596 97.9748 102.74 109.0012 115.6034 118.6086 125.4418 132.121 138.18201 141.44901 147.4462 152.0222 155.2892 163.0134 166.40359 171.1017 176.5687 182.24471 188.2749 194.4921 200.3584 203.3625"
         y="56.012001"
         sodipodi:role="line"
         id="tspan452">frastructure for Barcelona at City-Scale</tspan></text>
<text
       transform="matrix(1,0,0,-1,352.3606,309.3371)"
       style="font-variant:normal;font-weight:bold;font-stretch:normal;font-size:11px;font-family:Apercu;-inkscape-font-specification:Apercu-Bold;writing-mode:lr-tb;fill:#3b31f5;fill-opacity:1;fill-rule:nonzero;stroke:none"
       id="text460"><tspan
         x="0 8.1289997 14.63 23.441 26.554001 33.3927 38.440601 45.477299 51.923302 58.4771 63.523899 70.024902 79.900703 86.366501 93.208504 97.905502 101.0185 107.2522 112.343 118.3028 128.1786 134.6796 143.3894 150.1962 155.276 161.56799 164.681 172.33701"
         y="0"
         sodipodi:role="line"
         id="tspan456">New Procurement Framework &amp; </tspan><tspan
         x="33.902 41.720798 44.9086 51.044399 54.397202 59.158001 65.106796 68.5476 71.660599 80.821404 86.706398 91.786201 97.924202 104.577 109.2718 116.1996 119.6074 125.7762 132.308"
         y="14.003"
         sodipodi:role="line"
         id="tspan458">Digital Marketplace</tspan></text>
<text
       transform="matrix(1,0,0,-1,337.4556,281.3311)"
       style="font-variant:normal;font-weight:300;font-stretch:normal;font-size:11px;font-family:'Apercu Light';-inkscape-font-specification:Apercu-Light;writing-mode:lr-tb;fill:#000000;fill-opacity:1;fill-rule:nonzero;stroke:none"
       id="text470"><tspan
         x="0 6.369 9.0860004 15.2812 21.298201 29.141199 31.8582 38.1744 42.389599 48.8708 54.592999 60.447201 64.662399 70.604599 79.846802 85.755997 91.7752 95.801201 98.518204 101.1164 107.0267 111.7479 115.6331 120.0133 125.9995 135.2417 141.15089 147.1701 151.19611 153.9131 160.1963 166.6555 170.2437 172.7869 181.7101 184.5723 189.44749 195.5327 202.1107"
         y="0"
         sodipodi:role="line"
         id="tspan462">A new procurement instrument optimized </tspan><tspan
         x="-4.6859999 -1.1748 4.8994002 9.2334003 11.9504 18.299601 24.580601 29.497601 32.095798 38.224998 43.570999 46.287998 51.790199 57.029499 59.561699 62.016899 68.033897 70.7509 75.516098 81.447304 85.915497 90.581703 93.432899 99.144096 105.0973 109.9923 112.7093 116.1325 120.3477 126.5869 135.9039 138.6209 144.9371 149.1523 155.1693 160.2953 166.28149 171.0247 176.3399 178.71809 184.8363 190.28349 194.12469 200.2099 206.7879"
         y="14.003"
         sodipodi:role="line"
         id="tspan464">for buying agile services from pre-evaluated </tspan><tspan
         x="-2.684 1.9052 7.9134002 14.3506 20.622801 22.693001 25.544201 31.475401 35.591599 39.971802 43.040798 45.757801 51.314999 57.3452 59.954399 64.849403 67.566399 75.048599 77.580803 79.793999 82.422997 85.139999 90.4552 92.668404 95.124702 101.2099 109.0529 111.7699 121.0121 127.0863 131.3015 137.3185 140.03551 146.0217 149.9157 155.7787 161.1819 164.0331 169.94231 175.9615 179.9875 182.7045 189.02071 193.2359 199.6049"
         y="28.006001"
         sodipodi:role="line"
         id="tspan466">suppliers. This will allow more effcient pro-</tspan><tspan
         x="0.60500002 6.3271999 12.1814 16.396601 22.3388 31.580999 37.4902 43.509399 47.5354 50.252399 56.005402 60.990601 66.743599 69.197701 75.150902 80.045898 82.762901 88.045097 94.229301 100.7523 103.4693 107.6845 113.7686 119.9209 126.1161 131.8273 137.8443 140.56129 145.1505 151.15981 157.597 163.8681 165.93941 168.7906 174.7218 179.0558 181.7728 185.77901 188.3882 193.12041 198.3674"
         y="42.008999"
         sodipodi:role="line"
         id="tspan468">curement cycles and reduce supplier risk.</tspan></text>
<text
       transform="matrix(1,0,0,-1,110.8776,127.3201)"
       style="font-variant:normal;font-weight:bold;font-stretch:normal;font-size:11px;font-family:Apercu;-inkscape-font-specification:Apercu-Bold;writing-mode:lr-tb;fill:#3b31f5;fill-opacity:1;fill-rule:nonzero;stroke:none"
       id="text474"><tspan
         x="0 7.8188 11.0066 17.142401 20.495199 25.256001 31.203699 34.644501 37.7575 44.201302 50.658298 56.222099 61.784801 65.126602 71.658401 78.157204 81.270203 89.232002 95.689003 98.986801 102.2296 107.6163 114.0733 119.559 125.2328 128.34579 134.7016 139.4624 145.3111 152.1091 158.9819 164.8647 169.9115"
         y="0"
         sodipodi:role="line"
         id="tspan472">Digital Service Delivery Standard</tspan></text>
<text
       transform="matrix(1,0,0,-1,94.7076,113.3171)"
       style="font-variant:normal;font-weight:300;font-stretch:normal;font-size:11px;font-family:'Apercu Light';-inkscape-font-specification:Apercu-Light;writing-mode:lr-tb;fill:#000000;fill-opacity:1;fill-rule:nonzero;stroke:none"
       id="text484"><tspan
         x="0 6.809 9.9659996 15.1712 21.586399 26.052401 29.2094 35.744499 40.078499 43.2355 49.310799 53.755901 57.036098 61.317299 67.688499 72.134697 75.271896 81.2229 84.379898 88.661102 95.4701 98.627098 105.3723 111.8645 114.7377 121.7007 124.8577 132.01871 137.7739 142.42909 148.58031 155.07249 157.9666 164.6909 171.259 177.21001 180.367 186.44119 191.09641 197.6656 203.61659"
         y="0"
         sodipodi:role="line"
         id="tspan476">A set of criteria to help Barcelona crea-</tspan><tspan
         x="1.727 6.0082002 12.4652 15.6222 21.3444 27.968599 34.931599 38.0886 42.908798 49.346001 56.067001 59.223999 64.979202 71.900398 78.821602 85.784599 88.941597 96.553596 99.710602 105.6528 111.331 114.3021 117.1984 123.6554 126.8124 133.2386 136.37579 142.054 145.3342 149.7144 155.4696 158.5386 161.6956 166.9008 173.272 178.17909 183.28529 186.57651 192.72771 199.1209 203.9411 207.06509"
         y="14.003"
         sodipodi:role="line"
         id="tspan478">te and run good &amp; agile digital services. </tspan><tspan
         x="5.1700001 11.0902 17.461399 22.3696 27.4758 30.767 36.918201 43.310299 48.645302 51.802299 59.724499 62.696701 65.349899 68.4189 71.575897 78.6511 85.108101 88.265099 94.416298 101.1395 107.4887 112.4288 115.478 120.6403 124.9204 131.26961 137.72881 142.19479 145.35181 151.07401 157.6982 164.66119 167.81821 174.3544 178.6884 181.8454 188.3156 191.45171 197.19591 203.63091"
         y="28.006001"
         sodipodi:role="line"
         id="tspan480">Services will be consistent and of high </tspan><tspan
         x="85.910004 92.589203 99.1474 104.9026 107.4128 110.693 115.2822 119.8032"
         y="42.008999"
         sodipodi:role="line"
         id="tspan482">quality.</tspan></text>
<text
       transform="matrix(1,0,0,-1,375.5816,127.3091)"
       style="font-variant:normal;font-weight:bold;font-stretch:normal;font-size:11px;font-family:Apercu;-inkscape-font-specification:Apercu-Bold;writing-mode:lr-tb;fill:#3b31f5;fill-opacity:1;fill-rule:nonzero;stroke:none"
       id="text488"><tspan
         x="0 8.2698002 14.2406 21.2344 27.172199 34.077999 37.2658 40.563599 43.916401 48.820202 54.496201 57.6092 64.506203 67.914001 73.763802 80.605797 83.718803 91.759804 94.872803 102.9446 106.0224 111.2342 114.235 121.0418"
         y="0"
         sodipodi:role="line"
         id="tspan486">Capability Plan &amp; Hiring</tspan></text>
<text
       transform="matrix(1,0,0,-1,337.1256,113.3061)"
       style="font-variant:normal;font-weight:300;font-stretch:normal;font-size:11px;font-family:'Apercu Light';-inkscape-font-specification:Apercu-Light;writing-mode:lr-tb;fill:#000000;fill-opacity:1;fill-rule:nonzero;stroke:none"
       id="text500"><tspan
         x="0 6.9541998 13.8952 17.2722 23.225401 30.322599 37.298801 42.175098 49.1623 55.379501 61.618698 68.658699 72.035698 76.536903 83.565903 86.942902 93.853104 100.4993 105.9685 112.6807 115.7959 122.7391 129.64931 132.9075 139.6967 145.7027 149.0797 155.02299 161.8672 169.0502 172.4272 182.31841 188.1946 191.4528 198.3938"
         y="0"
         sodipodi:role="line"
         id="tspan490">An approach to developing and main-</tspan><tspan
         x="-1.738 2.8622 8.7384005 11.9966 18.400801 21.660101 28.4482 34.454201 37.8312 42.2994 49.264599 55.941601 59.3186 64.7108 70.432999 73.625198 76.498398 79.787399 83.164398 89.106598 95.950798 103.1338 106.5108 112.838 118.7912 125.9324 131.8537 138.70889 141.90109 144.6313 148.1315 152.3797 155.8909 162.5041 168.0591 171.4361 176.31129 183.0565 189.9557 196.44791 200.1329"
         y="14.003"
         sodipodi:role="line"
         id="tspan492">taining the skill and capabilities requi-</tspan><tspan
         x="1.122 5.9972 12.7424 19.9254 23.302401 27.4736 34.207802 39.201801 42.5788 49.488998 56.201199 58.9314 62.398602 67.868896 74.459 79.125198 82.384499 89.173698 95.179703 98.556702 105.2029 108.5601 114.4583 117.9585 122.5587 128.53391 131.82291 135.19991 140.62511 147.21629 152.3445 157.6707 161.1819 167.5531 174.16631 179.7213 183.0983 189.0416 195.8858 202.46381"
         y="28.006001"
         sodipodi:role="line"
         id="tspan494">red for delivering digital services and </tspan><tspan
         x="2.6070001 8.7779999 12.155 17.5362 22.1364 28.0676 32.547901 36.917099 40.175301 46.9645 52.970501 56.3475 62.300701 69.397903 76.3741 81.249298 88.236504 94.453697 100.6929 107.7329 111.1099 115.2822 122.0164 127.0104 130.38741 135.81261 142.5578 148.94 155.45419 160.12041 163.3786 170.1678 176.1738 179.5508 186.40601 193.08299 200.981"
         y="42.008999"
         sodipodi:role="line"
         id="tspan496">a staffing approach for securing new </tspan><tspan
         x="39.126999 44.519199 50.241402 53.433601 56.306801 59.389 64.944 68.320999 71.580299 78.521301 81.8983 86.366501 93.331703 100.0087 103.3857 108.6349 115.6001 122.3343 127.7045 132.3905 135.7675 140.26871 146.85989 151.7131 161.3403"
         y="56.012001"
         sodipodi:role="line"
         id="tspan498">skills in the short term.</tspan></text>
<g
       id="g502"><g
         id="g504"
         clip-path="url(#clipPath508)"><g
           id="g510"
           transform="translate(202.5822,531.4708)"><path
             d="m 0,0 v 7.001 h -2.821 c -0.314,1.567 -0.941,3.03 -1.777,4.389 l 1.986,1.985 -4.912,4.912 -1.985,-1.986 c -1.359,0.836 -2.822,1.463 -4.389,1.777 v 2.821 h -7.001 v -2.821 c -1.568,-0.314 -3.031,-0.941 -4.389,-1.777 l -1.985,1.986 -4.912,-4.912 1.986,-1.985 c -0.836,-1.359 -1.463,-2.822 -1.777,-4.389 h -2.821 V 0 h 2.821 c 0.314,-1.568 0.941,-3.031 1.777,-4.389 l -1.986,-1.985 4.912,-4.912 1.985,1.986 c 1.358,-0.836 2.821,-1.463 4.389,-1.777 v -2.821 h 7.001 v 2.821 c 1.567,0.314 3.03,0.941 4.389,1.777 l 1.985,-1.986 4.912,4.912 -1.986,1.985 c 0.836,1.358 1.463,2.821 1.777,4.389 z m -17.346,-4.493 c -4.389,0 -8.047,3.552 -8.047,8.046 0,4.389 3.553,8.046 8.047,8.046 4.493,0 8.046,-3.553 8.046,-8.046 -0.105,-4.494 -3.658,-8.046 -8.046,-8.046"
             style="fill:#3b30f5;fill-opacity:1;fill-rule:nonzero;stroke:none"
             id="path512"
             inkscape:connector-curvature="0" /></g><g
           id="g514"
           transform="translate(230.4827,503.5702)"><path
             d="m 0,0 v 7.001 h -2.821 c -0.314,1.568 -0.941,3.031 -1.777,4.389 l 1.986,1.985 -4.912,4.912 -1.985,-1.986 c -1.358,0.836 -2.822,1.463 -4.389,1.777 v 2.821 h -7.001 v -2.821 c -1.568,-0.314 -3.031,-0.941 -4.389,-1.777 l -1.985,1.986 -4.912,-4.912 1.986,-1.985 c -0.836,-1.358 -1.463,-2.821 -1.777,-4.389 h -2.821 V 0 h 2.821 c 0.314,-1.568 0.941,-3.03 1.777,-4.389 l -1.986,-1.985 4.912,-4.912 1.985,1.986 c 1.358,-0.836 2.821,-1.463 4.389,-1.777 v -2.821 h 7.001 v 2.821 c 1.567,0.314 3.03,0.941 4.389,1.777 l 1.985,-1.986 4.912,4.912 -1.986,1.985 c 0.836,1.359 1.463,2.821 1.777,4.389 z m -17.451,-4.493 c -4.389,0 -8.046,3.553 -8.046,8.046 0,4.493 3.553,8.046 8.046,8.046 4.493,0 8.046,-3.553 8.046,-8.046 0,-4.493 -3.553,-8.046 -8.046,-8.046"
             style="fill:#3b30f5;fill-opacity:1;fill-rule:nonzero;stroke:none"
             id="path516"
             inkscape:connector-curvature="0" /></g><g
           id="g518"
           transform="translate(199.1338,385.2166)"><path
             d="m 0,0 c -15.379,0 -27.847,-12.467 -27.847,-27.847 0,-15.379 12.468,-27.846 27.847,-27.846 15.379,0 27.847,12.467 27.847,27.846 C 27.847,-12.467 15.379,0 0,0 m 3.345,-46.336 h -6.457 v 26.245 h 6.457 z m -3.229,29.629 c -2.395,0 -4.166,1.822 -4.166,4.165 0,2.344 1.771,4.166 4.166,4.166 2.396,0 4.166,-1.822 4.166,-4.166 0,-2.343 -1.77,-4.165 -4.166,-4.165"
             style="fill:#3b30f5;fill-opacity:1;fill-rule:nonzero;stroke:none"
             id="path520"
             inkscape:connector-curvature="0" /></g><g
           id="g522"
           transform="translate(215.4591,199.1458)"><path
             d="m 0,0 h -33.928 c -5.168,0 -9.396,-4.228 -9.396,-9.396 v -33.928 c 0,-5.168 4.228,-9.395 9.396,-9.395 H 0 c 5.168,0 9.396,4.227 9.396,9.395 V -9.396 C 9.396,-4.228 5.168,0 0,0 m -31.15,-41.243 c -1.779,0 -3.163,1.344 -3.163,3.162 0,1.819 1.384,3.164 3.163,3.164 1.779,0 3.163,-1.345 3.163,-3.164 0,-1.818 -1.384,-3.162 -3.163,-3.162 m 0,11.72 c -1.779,0 -3.163,1.345 -3.163,3.163 0,1.819 1.384,3.163 3.163,3.163 1.779,0 3.163,-1.344 3.163,-3.163 0,-1.818 -1.384,-3.163 -3.163,-3.163 m 0,11.721 c -1.779,0 -3.163,1.344 -3.163,3.162 0,1.819 1.384,3.164 3.163,3.164 1.779,0 3.163,-1.345 3.163,-3.164 0,-1.818 -1.384,-3.162 -3.163,-3.162 m 29.571,-22.729 h -19.924 v 4.902 h 19.924 z m 0,11.72 h -19.924 v 4.902 h 19.924 z m 0,11.721 h -19.924 v 4.902 h 19.924 z"
             style="fill:#3b30f5;fill-opacity:1;fill-rule:nonzero;stroke:none"
             id="path524"
             inkscape:connector-curvature="0" /></g><g
           id="g526"
           transform="translate(451.4205,499.8385)"><path
             d="m 0,0 c -1.876,0 -3.397,-1.52 -3.397,-3.397 0,-1.876 1.521,-3.397 3.397,-3.397 1.876,0 3.397,1.521 3.397,3.397 C 3.397,-1.52 1.876,0 0,0 m -26.339,0 c -1.876,0 -3.397,-1.52 -3.397,-3.397 0,-1.876 1.521,-3.397 3.397,-3.397 1.876,0 3.397,1.521 3.397,3.397 0,1.877 -1.521,3.397 -3.397,3.397 m 36.732,11.74 9.485,27.8 h -50.159 l -2.744,8.403 h -14.509 l 1.43,-5.006 h 9.447 L -26.956,13.236 -30.467,1.877 H 6.948 l 1.43,5.006 h -32.189 l 1.703,4.857 z"
             style="fill:#3b30f5;fill-opacity:1;fill-rule:nonzero;stroke:none"
             id="path528"
             inkscape:connector-curvature="0" /></g><g
           id="g530"
           transform="translate(415.7213,173.5046)"><path
             d="m 0,0 c 0,9.735 6.36,18.237 15.511,21.027 v -5.386 l 9.216,6.749 -9.281,6.685 V 24.337 C 4.543,21.417 -3.18,11.552 -3.18,0 c 0,-11.357 7.658,-21.287 18.561,-24.272 l 0.844,3.05 C 6.685,-18.626 0,-9.93 0,0"
             style="fill:#3b30f5;fill-opacity:1;fill-rule:nonzero;stroke:none"
             id="path532"
             inkscape:connector-curvature="0" /></g><g
           id="g534"
           transform="translate(444.0822,197.5173)"><path
             d="m 0,0 -0.844,-3.05 c 9.541,-2.596 16.225,-11.358 16.225,-21.222 0,-9.735 -6.36,-18.237 -15.446,-21.028 v 5.387 l -9.216,-6.685 9.216,-6.749 v 4.737 c 10.903,2.921 18.626,12.786 18.626,24.273 C 18.561,-12.915 10.903,-2.985 0,0"
             style="fill:#3b30f5;fill-opacity:1;fill-rule:nonzero;stroke:none"
             id="path536"
             inkscape:connector-curvature="0" /></g><g
           id="g538"
           transform="translate(442.1353,173.1931)"><path
             d="m 0,0 c 0,2.509 -2.034,4.543 -4.543,4.543 -2.509,0 -4.543,-2.034 -4.543,-4.543 0,-2.509 2.034,-4.543 4.543,-4.543 C -2.034,-4.543 0,-2.509 0,0"
             style="fill:#3b30f5;fill-opacity:1;fill-rule:nonzero;stroke:none"
             id="path540"
             inkscape:connector-curvature="0" /></g></g></g><g
       id="g542"
       transform="translate(417.6451,377.5901)"><path
         d="M 0,0 -7.749,-13.814 H 7.749 Z"
         style="fill:#3b30f5;fill-opacity:1;fill-rule:nonzero;stroke:none"
         id="path544"
         inkscape:connector-curvature="0" /></g><g
       id="g546"
       transform="translate(430.6779,363.7761)"><path
         d="M 0,0 7.749,13.814 H -7.749 Z"
         style="fill:#3b30f5;fill-opacity:1;fill-rule:nonzero;stroke:none"
         id="path548"
         inkscape:connector-curvature="0" /></g><g
       id="g550"
       transform="translate(444.5068,377.5901)"><path
         d="M 0,0 -7.749,-13.814 H 7.749 Z"
         style="fill:#3b30f5;fill-opacity:1;fill-rule:nonzero;stroke:none"
         id="path552"
         inkscape:connector-curvature="0" /></g><g
       id="g554"
       transform="translate(457.5396,363.7761)"><path
         d="M 0,0 7.749,13.814 H -7.749 Z"
         style="fill:#3b30f5;fill-opacity:1;fill-rule:nonzero;stroke:none"
         id="path556"
         inkscape:connector-curvature="0" /></g><g
       id="g558"
       transform="translate(417.6451,345.3317)"><path
         d="M 0,0 -7.749,13.814 H 7.749 Z"
         style="fill:#3b30f5;fill-opacity:1;fill-rule:nonzero;stroke:none"
         id="path560"
         inkscape:connector-curvature="0" /></g><g
       id="g562"
       transform="translate(430.6779,359.1458)"><path
         d="M 0,0 7.749,-13.814 H -7.749 Z"
         style="fill:#3b30f5;fill-opacity:1;fill-rule:nonzero;stroke:none"
         id="path564"
         inkscape:connector-curvature="0" /></g><g
       id="g566"
       transform="translate(444.5068,345.4557)"><path
         d="M 0,0 -7.645,13.629 H 7.645 Z"
         style="fill:none;stroke:#3b30f5;stroke-width:1.403;stroke-linecap:butt;stroke-linejoin:miter;stroke-miterlimit:10;stroke-dasharray:none;stroke-opacity:1"
         id="path568"
         inkscape:connector-curvature="0" /></g><g
       id="g570"
       transform="translate(457.5396,359.1458)"><path
         d="M 0,0 7.749,-13.814 H -7.749 Z"
         style="fill:#3b30f5;fill-opacity:1;fill-rule:nonzero;stroke:none"
         id="path572"
         inkscape:connector-curvature="0" /></g><g
       id="g574"
       transform="translate(417.6451,340.7012)"><path
         d="M 0,0 -7.749,-13.814 H 7.749 Z"
         style="fill:#3b30f5;fill-opacity:1;fill-rule:nonzero;stroke:none"
         id="path576"
         inkscape:connector-curvature="0" /></g><g
       id="g578"
       transform="translate(430.6779,326.8873)"><path
         d="M 0,0 7.749,13.814 H -7.749 Z"
         style="fill:#3b30f5;fill-opacity:1;fill-rule:nonzero;stroke:none"
         id="path580"
         inkscape:connector-curvature="0" /></g><g
       id="g582"
       transform="translate(444.5068,340.7012)"><path
         d="M 0,0 -7.749,-13.814 H 7.749 Z"
         style="fill:#3b30f5;fill-opacity:1;fill-rule:nonzero;stroke:none"
         id="path584"
         inkscape:connector-curvature="0" /></g><g
       id="g586"
       transform="translate(457.5396,326.8873)"><path
         d="M 0,0 7.749,13.814 H -7.749 Z"
         style="fill:#3b30f5;fill-opacity:1;fill-rule:nonzero;stroke:none"
         id="path588"
         inkscape:connector-curvature="0" /></g><g
       id="g590"
       transform="translate(196.0746,598.5056)"><path
         d="M 0,0 H 245.765"
         style="fill:none;stroke:#e84f52;stroke-width:0.85000002;stroke-linecap:butt;stroke-linejoin:miter;stroke-miterlimit:10;stroke-dasharray:none;stroke-opacity:1"
         id="path592"
         inkscape:connector-curvature="0" /></g><g
       id="g594"
       transform="translate(227.847,578.1056)"><path
         d="M 0,0 H 182.22"
         style="fill:none;stroke:#e84f52;stroke-width:0.85000002;stroke-linecap:butt;stroke-linejoin:miter;stroke-miterlimit:10;stroke-dasharray:none;stroke-opacity:1"
         id="path596"
         inkscape:connector-curvature="0" /></g><text
       transform="matrix(1,0,0,-1,196.0746,600.2054)"
       style="font-variant:normal;font-weight:bold;font-stretch:normal;font-size:17px;font-family:Apercu;-inkscape-font-specification:Apercu-Bold;writing-mode:lr-tb;fill:#e84f52;fill-opacity:1;fill-rule:nonzero;stroke:none"
       id="text602"><tspan
         x="0 12.733 23.205 32.997002 45.084 49.298302 61.130299 65.465302 75.733299 88.160301 93.039299 102.5253 112.4193 116.7543 128.24631 133.6353 146.0623 151.8083 160.4613 171.0013 180.14729 184.4823 194.0363 205.63029 216.1703 227.96831 237.21629"
         y="0"
         sodipodi:role="line"
         id="tspan598">OPEN &amp; AGILE DIGITAL TRANS-</tspan><tspan
         x="31.773001 41.48 54.213001 65.552002 79.424004 88.859001 98.413002 103.802 116.535 128.62199 132.957 142.409 151.963 163.55701 172.9903 182.5443 192.3363 204.7973"
         y="20.4"
         sodipodi:role="line"
         id="tspan600">FORMATION STRATEGY</tspan></text>
</g></svg>