<?xml version="1.0" encoding="UTF-8" standalone="no"?>
<!-- Created with Inkscape (http://www.inkscape.org/) -->

<svg
   xmlns:dc="http://purl.org/dc/elements/1.1/"
   xmlns:cc="http://creativecommons.org/ns#"
   xmlns:rdf="http://www.w3.org/1999/02/22-rdf-syntax-ns#"
   xmlns:svg="http://www.w3.org/2000/svg"
   xmlns="http://www.w3.org/2000/svg"
   xmlns:sodipodi="http://sodipodi.sourceforge.net/DTD/sodipodi-0.dtd"
   xmlns:inkscape="http://www.inkscape.org/namespaces/inkscape"
   version="1.1"
   id="svg608"
   xml:space="preserve"
   width="651.57996"
   height="535.74799"
   viewBox="0 0 651.57995 535.74798"
   sodipodi:docname="open-digit-p30-roadmap-es.svg"
   inkscape:version="0.92.3 (2405546, 2018-03-11)"><metadata
     id="metadata614"><rdf:RDF><cc:Work
         rdf:about=""><dc:format>image/svg+xml</dc:format><dc:type
           rdf:resource="http://purl.org/dc/dcmitype/StillImage" /><dc:title></dc:title></cc:Work></rdf:RDF></metadata><defs
     id="defs612"><clipPath
       clipPathUnits="userSpaceOnUse"
       id="clipPath626"><path
         d="M 0,841.89 H 595.276 V 0 H 0 Z"
         id="path624"
         inkscape:connector-curvature="0" /></clipPath><clipPath
       clipPathUnits="userSpaceOnUse"
       id="clipPath640"><path
         d="M 0,0 H 595.276 V 841.89 H 0 Z"
         id="path638"
         inkscape:connector-curvature="0" /></clipPath><clipPath
       clipPathUnits="userSpaceOnUse"
       id="clipPath758"><path
         d="M 0,0 H 595.276 V 841.89 H 0 Z"
         id="path756"
         inkscape:connector-curvature="0" /></clipPath></defs><sodipodi:namedview
     pagecolor="#ffffff"
     bordercolor="#666666"
     borderopacity="1"
     objecttolerance="10"
     gridtolerance="10"
     guidetolerance="10"
     inkscape:pageopacity="0"
     inkscape:pageshadow="2"
     inkscape:window-width="1280"
     inkscape:window-height="961"
     id="namedview610"
     showgrid="false"
     fit-margin-top="0"
     fit-margin-left="0"
     fit-margin-right="0"
     fit-margin-bottom="0"
     inkscape:zoom="0.59465202"
     inkscape:cx="121.36171"
     inkscape:cy="116.80757"
     inkscape:window-x="-4"
     inkscape:window-y="-4"
     inkscape:window-maximized="1"
     inkscape:current-layer="g616" /><g
     id="g616"
     inkscape:groupmode="layer"
     inkscape:label="open-digit-p30-roadmap-es"
     transform="matrix(1.3333333,0,0,-1.3333333,-95.154798,944.39371)"><g
       id="g634"><g
         id="g636"
         clip-path="url(#clipPath640)"><g
           id="g642"
           transform="translate(166.0933,557.8828)"><path
             d="M 0,0 C 25.859,0 46.822,20.961 46.822,46.82 46.822,72.68 25.859,93.645 0,93.645 -25.859,93.645 -46.822,72.68 -46.822,46.82 -46.822,20.961 -25.859,0 0,0 Z"
             style="fill:none;stroke:#3b31f5;stroke-width:6.55000019;stroke-linecap:butt;stroke-linejoin:miter;stroke-miterlimit:4;stroke-dasharray:none;stroke-opacity:1"
             id="path644"
             inkscape:connector-curvature="0" /></g><g
           id="g646"
           transform="translate(145.808,380.6074)"><path
             d="M 0,0 C 18.263,0 33.068,14.805 33.068,33.068 33.068,51.33 18.263,66.137 0,66.137 -18.263,66.137 -33.068,51.33 -33.068,33.068 -33.068,14.805 -18.263,0 0,0 Z"
             style="fill:none;stroke:#c6c6c6;stroke-width:4.62599993;stroke-linecap:butt;stroke-linejoin:miter;stroke-miterlimit:4;stroke-dasharray:none;stroke-opacity:1"
             id="path648"
             inkscape:connector-curvature="0" /></g><g
           id="g650"
           transform="translate(240.4031,380.6074)"><path
             d="M 0,0 C 18.263,0 33.068,14.805 33.068,33.068 33.068,51.33 18.263,66.137 0,66.137 -18.263,66.137 -33.068,51.33 -33.068,33.068 -33.068,14.805 -18.263,0 0,0 Z"
             style="fill:none;stroke:#c6c6c6;stroke-width:4.62599993;stroke-linecap:butt;stroke-linejoin:miter;stroke-miterlimit:4;stroke-dasharray:none;stroke-opacity:1"
             id="path652"
             inkscape:connector-curvature="0" /></g><g
           id="g654"
           transform="translate(334.9984,380.6074)"><path
             d="M 0,0 C 18.263,0 33.068,14.805 33.068,33.068 33.068,51.33 18.263,66.137 0,66.137 -18.263,66.137 -33.068,51.33 -33.068,33.068 -33.068,14.805 -18.263,0 0,0 Z"
             style="fill:none;stroke:#c6c6c6;stroke-width:4.62599993;stroke-linecap:butt;stroke-linejoin:miter;stroke-miterlimit:4;stroke-dasharray:none;stroke-opacity:1"
             id="path656"
             inkscape:connector-curvature="0" /></g><g
           id="g658"
           transform="translate(199.5003,506.3164)"><path
             d="M 0,0 C 25.859,0 46.822,20.961 46.822,46.82 46.822,72.68 25.859,93.645 0,93.645 -25.859,93.645 -46.822,72.68 -46.822,46.82 -46.822,20.961 -25.859,0 0,0 Z"
             style="fill:none;stroke:#ffe000;stroke-width:6.55000019;stroke-linecap:butt;stroke-linejoin:miter;stroke-miterlimit:4;stroke-dasharray:none;stroke-opacity:1"
             id="path660"
             inkscape:connector-curvature="0" /></g><g
           id="g662"
           transform="translate(126.6326,506.3164)"><path
             d="M 0,0 C 25.859,0 46.822,20.961 46.822,46.82 46.822,72.68 25.859,93.645 0,93.645 -25.859,93.645 -46.822,72.68 -46.822,46.82 -46.822,20.961 -25.859,0 0,0 Z"
             style="fill:none;stroke:#e84f52;stroke-width:6.55000019;stroke-linecap:butt;stroke-linejoin:miter;stroke-miterlimit:4;stroke-dasharray:none;stroke-opacity:1"
             id="path664"
             inkscape:connector-curvature="0" /></g></g></g><text
       transform="matrix(1,0,0,-1,155.5443,625.2224)"
       style="font-variant:normal;font-weight:normal;font-stretch:normal;font-size:11px;font-family:Apercu;-inkscape-font-specification:Apercu;writing-mode:lr-tb;fill:#000000;fill-opacity:1;fill-rule:nonzero;stroke:none"
       id="text676"><tspan
         x="0 6.4239998 9.1960001 14.751 21.098"
         y="0"
         sodipodi:role="line"
         id="tspan666">Plan </tspan><tspan
         x="-11.242 -6.204 0.098999999 6.1820002 10.241 16.533001 20.966 23.870001 29.502001"
         y="13.002"
         sodipodi:role="line"
         id="tspan668">sectorial</tspan><tspan
         x="-46.584999 -40.160999 -37.389 -31.834 -25.487"
         y="68.079002"
         sodipodi:role="line"
         id="tspan670">Plan </tspan><tspan
         x="-57.992001 -51.523998 -45.363998 -42.416 -39.644001 -33.945999 -30.997999 -25.267 -19.129"
         y="81.081001"
         sodipodi:role="line"
         id="tspan672">de la Ley</tspan><tspan
         x="-55.198002 -49.466999 -43.724998 -37.355999 -29.677999 -23.287001"
         y="94.083"
         sodipodi:role="line"
         id="tspan674">LPACAP</tspan></text>
<text
       transform="matrix(1,0,0,-1,131.6413,411.3824)"
       style="font-variant:normal;font-weight:bold;font-stretch:normal;font-size:11px;font-family:Apercu;-inkscape-font-specification:Apercu-Bold;writing-mode:lr-tb;fill:#ffe000;fill-opacity:1;fill-rule:nonzero;stroke:none"
       id="text684"><tspan
         x="0 5.4120002 9.7460003 13.739 20.218"
         y="0"
         sodipodi:role="line"
         id="tspan678">71,3%</tspan><tspan
         x="92.521004 99.098999 105.325 109.252 115.775"
         y="0"
         sodipodi:role="line"
         id="tspan680">42,6%</tspan><tspan
         x="187.957 193.18201 199.41901 203.192 209.715"
         y="0"
         sodipodi:role="line"
         id="tspan682">75,9%</tspan></text>
<text
       transform="matrix(1,0,0,-1,197.6413,550.7414)"
       style="font-variant:normal;font-weight:normal;font-stretch:normal;font-size:11px;font-family:Apercu;-inkscape-font-specification:Apercu;writing-mode:lr-tb;fill:#000000;fill-opacity:1;fill-rule:nonzero;stroke:none"
       id="text690"><tspan
         x="0 6.4239998 9.1960001 14.751"
         y="0"
         sodipodi:role="line"
         id="tspan686">Plan</tspan><tspan
         x="-18.898001 -14.839 -8.5360003 -2.618 3.5969999 9.9659996 12.705 19.139999 24.716999 27.533001 33.494999"
         y="13.002"
         sodipodi:role="line"
         id="tspan688">tecnológico</tspan></text>
<path
       d="m 266.457,586.992 h 144.882 v 19.516 H 266.457 Z"
       style="fill:#3b31f5;fill-opacity:1;fill-rule:nonzero;stroke:none"
       id="path692"
       inkscape:connector-curvature="0" /><path
       d="m 416.441,586.992 h 28.913 v 19.516 h -28.913 z"
       style="fill:#9d98fa;fill-opacity:1;fill-rule:nonzero;stroke:none"
       id="path694"
       inkscape:connector-curvature="0" /><path
       d="m 416.441,560.961 h 28.913 v 19.516 h -28.913 z"
       style="fill:#f4a7a9;fill-opacity:1;fill-rule:nonzero;stroke:none"
       id="path696"
       inkscape:connector-curvature="0" /><path
       d="m 416.441,535.369 h 28.913 v 19.516 h -28.913 z"
       style="fill:#ffef80;fill-opacity:1;fill-rule:nonzero;stroke:none"
       id="path698"
       inkscape:connector-curvature="0" /><path
       d="m 484.473,586.992 h 28.913 v 19.516 h -28.913 z"
       style="fill:#9d98fa;fill-opacity:1;fill-rule:nonzero;stroke:none"
       id="path700"
       inkscape:connector-curvature="0" /><path
       d="m 484.473,560.961 h 28.913 v 19.516 h -28.913 z"
       style="fill:#f4a7a9;fill-opacity:1;fill-rule:nonzero;stroke:none"
       id="path702"
       inkscape:connector-curvature="0" /><path
       d="m 484.473,535.369 h 28.913 v 19.516 h -28.913 z"
       style="fill:#ffef80;fill-opacity:1;fill-rule:nonzero;stroke:none"
       id="path704"
       inkscape:connector-curvature="0" /><path
       d="m 450.457,586.992 h 28.913 v 19.516 h -28.913 z"
       style="fill:#9d98fa;fill-opacity:1;fill-rule:nonzero;stroke:none"
       id="path706"
       inkscape:connector-curvature="0" /><path
       d="m 450.457,560.961 h 28.913 v 19.516 h -28.913 z"
       style="fill:#f4a7a9;fill-opacity:1;fill-rule:nonzero;stroke:none"
       id="path708"
       inkscape:connector-curvature="0" /><path
       d="m 450.457,535.369 h 28.913 v 19.516 h -28.913 z"
       style="fill:#ffef80;fill-opacity:1;fill-rule:nonzero;stroke:none"
       id="path710"
       inkscape:connector-curvature="0" /><path
       d="m 518.489,586.992 h 28.913 v 19.516 h -28.913 z"
       style="fill:#625af7;fill-opacity:1;fill-rule:nonzero;stroke:none"
       id="path712"
       inkscape:connector-curvature="0" /><path
       d="m 518.489,560.961 h 28.913 v 19.516 h -28.913 z"
       style="fill:#ed7275;fill-opacity:1;fill-rule:nonzero;stroke:none"
       id="path714"
       inkscape:connector-curvature="0" /><path
       d="m 518.489,535.369 h 28.913 v 19.516 h -28.913 z"
       style="fill:#ffe633;fill-opacity:1;fill-rule:nonzero;stroke:none"
       id="path716"
       inkscape:connector-curvature="0" /><path
       d="m 266.457,560.961 h 144.882 v 19.516 H 266.457 Z"
       style="fill:#e84f52;fill-opacity:1;fill-rule:nonzero;stroke:none"
       id="path718"
       inkscape:connector-curvature="0" /><path
       d="m 266.457,535.369 h 144.882 v 19.516 H 266.457 Z"
       style="fill:#ffe000;fill-opacity:1;fill-rule:nonzero;stroke:none"
       id="path720"
       inkscape:connector-curvature="0" /><text
       transform="matrix(1,0,0,-1,290.1682,593.9531)"
       style="font-variant:normal;font-weight:bold;font-stretch:normal;font-size:9px;font-family:Apercu;-inkscape-font-specification:Apercu-Bold;writing-mode:lr-tb;fill:#ffffff;fill-opacity:1;fill-rule:nonzero;stroke:none"
       id="text750"><tspan
         x="0 2.5469999 7.6230001 10.044 15.003 17.451 22.131001 25.659 27.999001 32.147999 36.773998 40.877998 43.110001 48.438 50.912102 55.385101 60.668098 62.900101 66.959099 72.1521 77.300102 80.783096 86.039101 89.990097 92.438103 96.992104 135.38699 140.634"
         y="0"
         sodipodi:role="line"
         id="tspan722">Iniciativas Plan sectorial53</tspan><tspan
         x="138.006"
         y="26.028"
         id="tspan724">3</tspan><tspan
         x="136.341 141.255"
         y="51.48"
         sodipodi:role="line"
         id="tspan726">31</tspan><tspan
         x="167.436 171.162 176.814"
         y="-7.9936058e-015"
         sodipodi:role="line"
         id="tspan728">105</tspan><tspan
         x="172.125"
         y="26.028"
         id="tspan730">5</tspan><tspan
         x="169.677 174.06"
         y="51.48"
         sodipodi:role="line"
         id="tspan732">70</tspan><tspan
         x="204.021 207.74699"
         y="-7.9936058e-015"
         sodipodi:role="line"
         id="tspan734">10</tspan><tspan
         x="205.884"
         y="26.028"
         id="tspan736">0</tspan><tspan
         x="206.10001"
         y="51.48"
         id="tspan738">6</tspan><tspan
         x="233.67599 238.815 244.35001"
         y="-7.9936058e-015"
         sodipodi:role="line"
         id="tspan740">64%</tspan><tspan
         x="229.545 234.58501 239.679 242.946 248.481"
         y="26.028"
         sodipodi:role="line"
         id="tspan742">62,4%</tspan><tspan
         x="229.446 234.675 239.778 243.045 248.58"
         y="51.48"
         sodipodi:role="line"
         id="tspan744">65,4%</tspan><tspan
         x="-16.857 -14.4 -9.4139996 -7.0830002 -2.214 0.14309999 4.7330999 8.1710997 10.4211 14.4801 19.0161 23.0301 25.1127 30.3507 32.735699 37.118698 42.311699 44.395199 49.5882 54.502201 56.584801 58.969799 63.505798 65.589302 70.322403 75.201302 79.4403 81.523804 84.133797 88.939796 93.772797 98.991898 105.1848 110.5479 115.7859"
         y="26.028"
         sodipodi:role="line"
         id="tspan746">Iniciativas Plan de la Ley (LPACAP)</tspan><tspan
         x="-7.2989998 -4.7519999 0.324 2.7449999 7.704 10.152 14.832 18.360001 20.700001 24.849001 29.475 33.578999 35.811001 41.139 43.613098 48.086102 53.369099 55.601101 59.084099 64.2771 69.236099 74.483101 79.829102 82.295097 87.650101 92.357101 94.778099 99.809097"
         y="50.912998"
         sodipodi:role="line"
         id="tspan748">Iniciativas Plan tecnológico</tspan></text>
<g
       id="g752"><g
         id="g754"
         clip-path="url(#clipPath758)"><g
           id="g760"
           transform="translate(114.1127,404.2168)"><path
             d="m 0,0 c 4.069,-13.654 16.719,-23.609 31.695,-23.609 18.263,0 33.068,14.804 33.068,33.068 0,18.262 -14.805,33.068 -33.068,33.068"
             style="fill:none;stroke:#3b31f5;stroke-width:4.62599993;stroke-linecap:butt;stroke-linejoin:miter;stroke-miterlimit:4;stroke-dasharray:none;stroke-opacity:1"
             id="path762"
             inkscape:connector-curvature="0" /></g><g
           id="g764"
           transform="translate(256.501,384.7832)"><path
             d="m 0,0 c 10.124,5.652 16.97,16.473 16.97,28.893 0,18.261 -14.805,33.068 -33.068,33.068"
             style="fill:none;stroke:#e84f52;stroke-width:4.62599993;stroke-linecap:butt;stroke-linejoin:miter;stroke-miterlimit:4;stroke-dasharray:none;stroke-opacity:1"
             id="path766"
             inkscape:connector-curvature="0" /></g><g
           id="g768"
           transform="translate(302.2981,418.623)"><path
             d="m 0,0 c -0.242,-1.613 -0.368,-3.266 -0.368,-4.947 0,-18.264 14.805,-33.069 33.068,-33.069 18.263,0 33.068,14.805 33.068,33.069 0,18.261 -14.805,33.068 -33.068,33.068"
             style="fill:none;stroke:#ffe000;stroke-width:4.62599993;stroke-linecap:butt;stroke-linejoin:miter;stroke-miterlimit:4;stroke-dasharray:none;stroke-opacity:1"
             id="path770"
             inkscape:connector-curvature="0" /></g></g></g><text
       transform="matrix(1,0,0,-1,85.5118,673.3701)"
       style="font-variant:normal;font-weight:bold;font-stretch:normal;font-size:11px;font-family:Apercu;-inkscape-font-specification:Apercu-Bold;writing-mode:lr-tb;fill:#000000;fill-opacity:1;fill-rule:nonzero;stroke:none"
       id="text774"><tspan
         x="0 6.3249998 9.3830004 12.111 18.622999 21.648001 27.115 33.571999 36.299999 42.757 48.873001 51.601002 60.377899 65.844902 72.257896 78.747902 84.467903 88.724899 95.302902 98.030899 102.9919 109.1079 111.8359 117.9849 124.4419 130.8549 134.7159 141.13989 145.78191 155.2529 160.90691 163.6349 170.3009 176.7249 181.3669"
         y="0"
         sodipodi:role="line"
         id="tspan772">El Plan de Mandato se conforma por:</tspan></text>
<text
       transform="matrix(1,0,0,-1,85.0388,477.3721)"
       style="font-variant:normal;font-weight:normal;font-stretch:normal;font-size:11px;font-family:Apercu;-inkscape-font-specification:Apercu;writing-mode:lr-tb;fill:#000000;fill-opacity:1;fill-rule:nonzero;stroke:none"
       id="text778"><tspan
         x="0 6.1599998"
         y="0"
         sodipodi:role="line"
         id="tspan776">El</tspan></text>
<text
       transform="matrix(1,0,0,-1,98.1783,477.3721)"
       style="font-variant:normal;font-weight:bold;font-stretch:normal;font-size:11px;font-family:Apercu;-inkscape-font-specification:Apercu-Bold;writing-mode:lr-tb;fill:#000000;fill-opacity:1;fill-rule:nonzero;stroke:none"
       id="text782"><tspan
         x="0 5.665 10.373 16.159 22.615999 29.194 33.341 39.798 45.914001 50.0555 56.281502 59.108501 65.455498 71.516502 77.885498 83.946503 86.905502 93.362503 99.819504 103.961 110.418 116.49 119.548 123.695 130.13 134.79401 140.91 145.871 152.075 158.631 165 171.116 176.05499 180.312 186.89 191.03149 197.48849 203.60451 207.7515 214.0545 220.73151 225.18649 230.6535"
         y="0"
         sodipodi:role="line"
         id="tspan780">grado de ejecución del presupuesto de 2017 </tspan></text>
<text
       transform="matrix(1,0,0,-1,85.0388,463.3691)"
       style="font-variant:normal;font-weight:normal;font-stretch:normal;font-size:11px;font-family:Apercu;-inkscape-font-specification:Apercu;writing-mode:lr-tb;fill:#000000;fill-opacity:1;fill-rule:nonzero;stroke:none"
       id="text788"><tspan
         x="0 6.4679999 12.628 15.576 21.570999 27.357 33.803001 39.500999 42.449001 48.873001 51.645 57.200001 63.547001 66.495003 72.193001 75.140999 81.125 87.349899 92.981903 95.720901 101.8149 106.8859 109.8339 116.3019 122.4619 125.4099 128.1599 134.3419 140.5239 143.3399 149.8519 152.7999 158.89391 163.9649 166.9129 173.0069 175.84489 178.79289 183.6329 186.4489 192.10181 198.12981 200.9458 207.12781 213.4418 217.50079 223.6608"
         y="0"
         sodipodi:role="line"
         id="tspan784">de cada Plan a fnales de junio es el siguiente:</tspan><tspan
         x="0 6.1599998"
         y="112.002"
         sodipodi:role="line"
         id="tspan786">El</tspan></text>
<text
       transform="matrix(1,0,0,-1,98.7888,351.3671)"
       style="font-variant:normal;font-weight:bold;font-stretch:normal;font-size:11px;font-family:Apercu;-inkscape-font-specification:Apercu-Bold;writing-mode:lr-tb;fill:#000000;fill-opacity:1;fill-rule:nonzero;stroke:none"
       id="text792"><tspan
         x="0 6.0939999 12.606 15.631 21.098 27.555 32.306999 38.764 44.880001 49.632 58.41 63.876999 70.290001 76.779999 82.5 86.757004 93.334999"
         y="0"
         sodipodi:role="line"
         id="tspan790">“Plan de Mandato”</tspan></text>
<text
       transform="matrix(1,0,0,-1,203.3548,351.3671)"
       style="font-variant:normal;font-weight:normal;font-stretch:normal;font-size:11px;font-family:Apercu;-inkscape-font-specification:Apercu;writing-mode:lr-tb;fill:#000000;fill-opacity:1;fill-rule:nonzero;stroke:none"
       id="text800"><tspan
         x="0 5.9619999 12.397 18.711 22.77 28.93 38.147999 44.616001 47.388 53.085999 58.223 60.994999 66.615997 71.686996 76.823997 83.039001 89.342003 95.304001 101.398 106.238 109.054 115.5 121.286 127.754 133.84801 138.9201 144.0571 150.5251 156.61909 159.45711"
         y="0"
         sodipodi:role="line"
         id="tspan794">contempla las necesidades del </tspan><tspan
         x="-118.316 -112.024 -106.964 -100.782 -94.468002 -90.332001 -84.777 -75.416 -72.599998 -66.417999 -60.104 -56.044998 -49.533001 -45.386002 -40.326 -36.179001 -30.084999 -27.247 -23.1 -16.709 -12.386 -5.9510002 -0.37400001 4.0479999 9.6029997 19.018999 24.716999 28.864 35.332001 41.492001 45.639 51.986 54.801998 60.379002 63.316002 67.452003 73.084 75.636002 78.452003 83.489998 89.276001 95.139 97.955002 104.39 110.737 114.884 120.45 126.94 129.756 135.76199 140.47 144.606 150.304 154.451 159.511"
         y="14.003"
         sodipodi:role="line"
         id="tspan796">Ayuntamiento y el programa de digitalización abierta y </tspan><tspan
         x="-118.316 -111.848 -105.754 -100.782 -95.281998 -90.738998 -86.416 -80.046997 -77.296997 -74.557999 -68.045998 -65.098 -59.312 -53.735001 -50.973999 -48.136002 -45.188 -38.720001 -32.560001 -29.612 -24.573999 -18.568001 -13.651 -8.7340002 -5.9180002 -0.055 2.7609999 9.1739998"
         y="28.006001"
         sodipodi:role="line"
         id="tspan798">desarrollo ágil de servicios</tspan></text>
<g
       id="g802"
       transform="translate(72.3661,689.6562)"><path
         d="M 0,0 V -370.414"
         style="fill:none;stroke:#e84f52;stroke-width:2;stroke-linecap:butt;stroke-linejoin:miter;stroke-miterlimit:4;stroke-dasharray:11.759, 11.759;stroke-dashoffset:0;stroke-opacity:1"
         id="path804"
         inkscape:connector-curvature="0" /></g><g
       id="g806"
       transform="translate(90.6168,307.4844)"><path
         d="M 0,0 H 456.267"
         style="fill:none;stroke:#e84f52;stroke-width:2;stroke-linecap:butt;stroke-linejoin:miter;stroke-miterlimit:4;stroke-dasharray:12.167, 12.167;stroke-dashoffset:0;stroke-opacity:1"
         id="path808"
         inkscape:connector-curvature="0" /></g><g
       id="g810"
       transform="translate(559.0511,325.123)"><path
         d="M 0,0 V 370.412"
         style="fill:none;stroke:#e84f52;stroke-width:2;stroke-linecap:butt;stroke-linejoin:miter;stroke-miterlimit:4;stroke-dasharray:11.759, 11.759;stroke-dashoffset:0;stroke-opacity:1"
         id="path812"
         inkscape:connector-curvature="0" /></g><g
       id="g814"
       transform="translate(540.8005,707.2949)"><path
         d="M 0,0 H -456.267"
         style="fill:none;stroke:#e84f52;stroke-width:2;stroke-linecap:butt;stroke-linejoin:miter;stroke-miterlimit:4;stroke-dasharray:12.167, 12.167;stroke-dashoffset:0;stroke-opacity:1"
         id="path816"
         inkscape:connector-curvature="0" /></g><g
       id="g818"
       transform="translate(72.3661,313.3633)"><path
         d="m 0,0 v -5.879 h 6.084 m 474.518,0 h 6.083 V 0 m 0,388.053 v 5.879 h -6.083 m -474.518,0 H 0 v -5.879"
         style="fill:none;stroke:#e84f52;stroke-width:2;stroke-linecap:butt;stroke-linejoin:miter;stroke-miterlimit:4;stroke-dasharray:none;stroke-opacity:1"
         id="path820"
         inkscape:connector-curvature="0" /></g></g></svg>