<?xml version="1.0" encoding="UTF-8" standalone="no"?>
<!-- Created with Inkscape (http://www.inkscape.org/) -->

<svg
   xmlns:dc="http://purl.org/dc/elements/1.1/"
   xmlns:cc="http://creativecommons.org/ns#"
   xmlns:rdf="http://www.w3.org/1999/02/22-rdf-syntax-ns#"
   xmlns:svg="http://www.w3.org/2000/svg"
   xmlns="http://www.w3.org/2000/svg"
   xmlns:sodipodi="http://sodipodi.sourceforge.net/DTD/sodipodi-0.dtd"
   xmlns:inkscape="http://www.inkscape.org/namespaces/inkscape"
   version="1.1"
   id="svg180"
   xml:space="preserve"
   width="623.90015"
   height="397.33398"
   viewBox="0 0 623.90014 397.33398"
   sodipodi:docname="open-digit-p20-areas-es.svg"
   inkscape:version="0.92.3 (2405546, 2018-03-11)"><metadata
     id="metadata186"><rdf:RDF><cc:Work
         rdf:about=""><dc:format>image/svg+xml</dc:format><dc:type
           rdf:resource="http://purl.org/dc/dcmitype/StillImage" /><dc:title></dc:title></cc:Work></rdf:RDF></metadata><defs
     id="defs184"><clipPath
       clipPathUnits="userSpaceOnUse"
       id="clipPath198"><path
         d="M 0,841.89 H 595.276 V 0 H 0 Z"
         id="path196"
         inkscape:connector-curvature="0" /></clipPath></defs><sodipodi:namedview
     pagecolor="#ffffff"
     bordercolor="#666666"
     borderopacity="1"
     objecttolerance="10"
     gridtolerance="10"
     guidetolerance="10"
     inkscape:pageopacity="0"
     inkscape:pageshadow="2"
     inkscape:window-width="1280"
     inkscape:window-height="961"
     id="namedview182"
     showgrid="false"
     fit-margin-top="0"
     fit-margin-left="0"
     fit-margin-right="0"
     fit-margin-bottom="0"
     inkscape:zoom="0.59465202"
     inkscape:cx="271.36356"
     inkscape:cy="492.44604"
     inkscape:window-x="-4"
     inkscape:window-y="-4"
     inkscape:window-maximized="1"
     inkscape:current-layer="g188" /><g
     id="g188"
     inkscape:groupmode="layer"
     inkscape:label="open-digit-p20-areas-es"
     transform="matrix(1.3333333,0,0,-1.3333333,-113.38586,511.16212)"><text
       transform="matrix(1,0,0,-1,271.6506,355.2607)"
       style="font-variant:normal;font-weight:bold;font-stretch:normal;font-size:13px;font-family:Apercu;-inkscape-font-specification:Apercu-Bold;writing-mode:lr-tb;fill:#3b31f5;fill-opacity:1;fill-rule:nonzero;stroke:none"
       id="text288"><tspan
         x="0 9.0740004 16.952 24.063 31.733 40.742001 44.953999 51.389 59.060299 68.069298 72.008301 81.563301"
         y="0"
         sodipodi:role="line"
         id="tspan286">CAPACITACIÓN</tspan></text>
<g
       id="g290"
       transform="translate(86.5394,363.4336)"><path
         d="M 0,0 V -264.271"
         style="fill:none;stroke:#3b31f5;stroke-width:3;stroke-linecap:butt;stroke-linejoin:miter;stroke-miterlimit:4;stroke-dasharray:12.292, 12.292;stroke-dashoffset:0;stroke-opacity:1"
         id="path292"
         inkscape:connector-curvature="0" /></g><g
       id="g294"
       transform="translate(104.8917,86.8711)"><path
         d="M 0,0 H 434.338"
         style="fill:none;stroke:#3b31f5;stroke-width:3;stroke-linecap:butt;stroke-linejoin:miter;stroke-miterlimit:4;stroke-dasharray:12.235, 12.235;stroke-dashoffset:0;stroke-opacity:1"
         id="path296"
         inkscape:connector-curvature="0" /></g><g
       id="g298"
       transform="translate(551.4645,105.3086)"><path
         d="M 0,0 V 264.271"
         style="fill:none;stroke:#3b31f5;stroke-width:3;stroke-linecap:butt;stroke-linejoin:miter;stroke-miterlimit:4;stroke-dasharray:12.292, 12.292;stroke-dashoffset:0;stroke-opacity:1"
         id="path300"
         inkscape:connector-curvature="0" /></g><g
       id="g302"
       transform="translate(533.1122,381.8711)"><path
         d="M 0,0 H -434.338"
         style="fill:none;stroke:#3b31f5;stroke-width:3;stroke-linecap:butt;stroke-linejoin:miter;stroke-miterlimit:4;stroke-dasharray:12.235, 12.235;stroke-dashoffset:0;stroke-opacity:1"
         id="path304"
         inkscape:connector-curvature="0" /></g><g
       id="g306"
       transform="translate(86.5394,93.0176)"><path
         d="m 0,0 v -6.146 h 6.117 m 452.691,0 h 6.117 V 0 m 0,282.707 v 6.147 h -6.117 m -452.691,0 H 0 v -6.147"
         style="fill:none;stroke:#3b31f5;stroke-width:3;stroke-linecap:butt;stroke-linejoin:miter;stroke-miterlimit:4;stroke-dasharray:none;stroke-opacity:1"
         id="path308"
         inkscape:connector-curvature="0" /></g><path
       d="m 99.213,302.465 h 437.953 v 39.5 H 99.213 Z"
       style="fill:#ffe000;fill-opacity:1;fill-rule:nonzero;stroke:none"
       id="path310"
       inkscape:connector-curvature="0" /><path
       d="m 99.213,261.619 h 437.953 v 39.5 H 99.213 Z"
       style="fill:#e84f52;fill-opacity:1;fill-rule:nonzero;stroke:none"
       id="path312"
       inkscape:connector-curvature="0" /><path
       d="m 99.213,182.818 h 218.976 v 81.213 H 99.213 Z"
       style="fill:#625af7;fill-opacity:1;fill-rule:nonzero;stroke:none"
       id="path314"
       inkscape:connector-curvature="0" /><path
       d="m 318.189,182.818 h 218.976 v 81.213 H 318.189 Z"
       style="fill:#9d98fa;fill-opacity:1;fill-rule:nonzero;stroke:none"
       id="path316"
       inkscape:connector-curvature="0" /><path
       d="m 99.213,137.262 h 437.953 v 45.557 H 99.213 Z"
       style="fill:#766ff8;fill-opacity:1;fill-rule:nonzero;stroke:none"
       id="path318"
       inkscape:connector-curvature="0" /><path
       d="m 99.213,97.762 h 437.953 v 39.5 H 99.213 Z"
       style="fill:#ffe633;fill-opacity:1;fill-rule:nonzero;stroke:none"
       id="path320"
       inkscape:connector-curvature="0" /><text
       transform="matrix(1,0,0,-1,228.4639,318.1819)"
       style="font-variant:normal;font-weight:bold;font-stretch:normal;font-size:13px;font-family:Apercu;-inkscape-font-specification:Apercu-Bold;writing-mode:lr-tb;fill:#ffffff;fill-opacity:1;fill-rule:nonzero;stroke:none"
       id="text338"><tspan
         x="0 7.4749999 13.312 18.486 24.947001 32.526001 40.195999 46.695999 52.181999 55.405998 63.036999 70.264999 73.488998 79.351997 86.528 92.651001 98.772697 102.2697 109.4327 112.9297 120.6387 126.5667 129.7907 137.3567 140.67171 147.4707 150.9807 156.15469 162.7327 166.29469 173.52271"
         y="0"
         sodipodi:role="line"
         id="tspan322">Estándar de servicios digitales</tspan><tspan
         x="2.938 10.413 18.044001 23.139999 28.652 35.880001 42.575001 49.257 52.480999 60.112 67.339996 70.564003 76.425697 83.602997 89.725998 95.847702 99.344704 106.5077 110.0047 117.7137 123.6417 126.8657 134.4317 137.7467 144.5457 148.05569 153.22971 159.80769 163.36839 170.59641"
         y="39.429001"
         sodipodi:role="line"
         id="tspan324">Entrega de servicios digitales</tspan><tspan
         x="-57.641998 -50.479 -42.796001 -34.9193 -27.742001 -22.1793 -15.7183 -8.3863001 -4.8502998"
         y="89.817001"
         sodipodi:role="line"
         id="tspan326">Soberanía</tspan><tspan
         x="-63.153999 -58.123001 -50.622002 -43.459 -35.880001 -28.158001 -24.596001 -16.861 -10.062 -6.5662999 0.66170001"
         y="105.417"
         sodipodi:role="line"
         id="tspan328">tecnológica</tspan><tspan
         x="155.935 166.218 173.62801 178.659 186.524 194.155 201.877 205.439 213.174 219.97301 223.509 230.1897"
         y="89.101997"
         sodipodi:role="line"
         id="tspan330">Metodologías</tspan><tspan
         x="179.27 185.952 192.75101 196.06599 199.62801 206.856"
         y="104.702"
         sodipodi:role="line"
         id="tspan332">ágiles</tspan><tspan
         x="32.785999 39.949001 47.632 55.509998 62.686001 68.25 74.710999 82.042999 85.579002 92.261002 95.485001 103.116 110.344 113.568 121.238 127.998 133.02901 140.73801"
         y="162.123"
         sodipodi:role="line"
         id="tspan334">Soberanía de datos</tspan><tspan
         x="-2.8469999 6.1230001 13.65 20.969 26.884001 34.658001 37.882 49.101002 56.964699 64.595703 71.773003 75.334999 83.109001 86.333 93.9627 101.1907 104.4147 111.6817 119.3127 126.9437 132.0397 137.6037 144.36369 149.5377 156.3757 163.5387 167.03571 174.6667"
         y="203.125"
         sodipodi:role="line"
         id="tspan336">Nuevo modelo de contratación</tspan></text>
</g></svg>