<?xml version="1.0" encoding="UTF-8" standalone="no"?>
<!-- Created with Inkscape (http://www.inkscape.org/) -->

<svg
   xmlns:dc="http://purl.org/dc/elements/1.1/"
   xmlns:cc="http://creativecommons.org/ns#"
   xmlns:rdf="http://www.w3.org/1999/02/22-rdf-syntax-ns#"
   xmlns:svg="http://www.w3.org/2000/svg"
   xmlns="http://www.w3.org/2000/svg"
   xmlns:sodipodi="http://sodipodi.sourceforge.net/DTD/sodipodi-0.dtd"
   xmlns:inkscape="http://www.inkscape.org/namespaces/inkscape"
   version="1.1"
   id="svg10"
   xml:space="preserve"
   width="622.28931"
   height="294.50934"
   viewBox="0 0 622.2893 294.50933"
   sodipodi:docname="open-digit-p9-axes-es.svg"
   inkscape:version="0.92.3 (2405546, 2018-03-11)"><metadata
     id="metadata16"><rdf:RDF><cc:Work
         rdf:about=""><dc:format>image/svg+xml</dc:format><dc:type
           rdf:resource="http://purl.org/dc/dcmitype/StillImage" /><dc:title></dc:title></cc:Work></rdf:RDF></metadata><defs
     id="defs14"><clipPath
       clipPathUnits="userSpaceOnUse"
       id="clipPath28"><path
         d="M 0,841.89 H 595.276 V 0 H 0 Z"
         id="path26"
         inkscape:connector-curvature="0" /></clipPath></defs><sodipodi:namedview
     pagecolor="#ffffff"
     bordercolor="#666666"
     borderopacity="1"
     objecttolerance="10"
     gridtolerance="10"
     guidetolerance="10"
     inkscape:pageopacity="0"
     inkscape:pageshadow="2"
     inkscape:window-width="1280"
     inkscape:window-height="961"
     id="namedview12"
     showgrid="false"
     fit-margin-top="0"
     fit-margin-left="0"
     fit-margin-right="0"
     fit-margin-bottom="0"
     inkscape:zoom="0.67882976"
     inkscape:cx="270.62535"
     inkscape:cy="274.25733"
     inkscape:window-x="-4"
     inkscape:window-y="-4"
     inkscape:window-maximized="1"
     inkscape:current-layer="g18" /><g
     id="g18"
     inkscape:groupmode="layer"
     inkscape:label="open-digit-p9-axes-es"
     transform="matrix(1.3333333,0,0,-1.3333333,-126.22533,581.51199)"><path
       d="M 95.669,216.252 H 219.212 V 435.134 H 95.669 Z"
       style="fill:#9d98fa;fill-opacity:1;fill-rule:nonzero;stroke:none"
       id="path104"
       inkscape:connector-curvature="0" /><path
       d="M 95.669,216.252 H 219.212 V 435.134 H 95.669 Z"
       style="fill:none;stroke:#3b31f5;stroke-width:2;stroke-linecap:butt;stroke-linejoin:miter;stroke-miterlimit:4;stroke-dasharray:none;stroke-opacity:1"
       id="path106"
       inkscape:connector-curvature="0" /><path
       d="M 262.748,216.252 H 560.386 V 435.134 H 262.748 Z"
       style="fill:#9d98fa;fill-opacity:1;fill-rule:nonzero;stroke:none"
       id="path108"
       inkscape:connector-curvature="0" /><path
       d="M 262.748,216.252 H 560.386 V 435.134 H 262.748 Z"
       style="fill:none;stroke:#3b31f5;stroke-width:2;stroke-linecap:butt;stroke-linejoin:miter;stroke-miterlimit:4;stroke-dasharray:none;stroke-opacity:1"
       id="path110"
       inkscape:connector-curvature="0" /><text
       transform="matrix(1,0,0,-1,138.8686,407.657)"
       style="font-variant:normal;font-weight:bold;font-stretch:normal;font-size:17px;font-family:Apercu;-inkscape-font-specification:Apercu-Bold;writing-mode:lr-tb;fill:#3b31f5;fill-opacity:1;fill-rule:nonzero;stroke:none"
       id="text114"><tspan
         x="0 9.9449997 18.240999 28.016001"
         y="0"
         sodipodi:role="line"
         id="tspan112">EJES</tspan></text>
<text
       transform="matrix(1,0,0,-1,122.5109,371.257)"
       style="font-variant:normal;font-weight:bold;font-stretch:normal;font-size:14px;font-family:Apercu;-inkscape-font-specification:Apercu-Bold;writing-mode:lr-tb;fill:#ffffff;fill-opacity:1;fill-rule:nonzero;stroke:none"
       id="text128"><tspan
         x="0 10.332 20.622 29.091999 32.914001 40.782001 49.504002 59.276001"
         y="0"
         sodipodi:role="line"
         id="tspan116">GOBIERNO</tspan><tspan
         x="4.4380002 11.914 15.386 25.087999 29.33 38.037998 47.375999 55.860001"
         y="16.002001"
         sodipodi:role="line"
         id="tspan118">Y CIUDAD</tspan><tspan
         x="0.93800002 8.9879999 19.698 28.125999 36.848 44.897999 52.598 61.416599 68.934601"
         y="48.006001"
         sodipodi:role="line"
         id="tspan120">EMPRESAS </tspan><tspan
         x="-6.5799999 0.89600003 4.368 12.236 22.288 29.959999 33.782001 43.119999 51.604 60.872002 68.921997 76.440002"
         y="64.008003"
         sodipodi:role="line"
         id="tspan122">Y ENTIDADES </tspan><tspan
         x="2.9820001 10.598 21.35 31.052 35.223999 43.7094 51.324001 59.374001"
         y="80.010002"
         sodipodi:role="line"
         id="tspan124">SOCIALES</tspan><tspan
         x="-5.2639999 4.4380002 8.6800003 17.388 26.726 35.211399 44.5494 53.033401 62.371399 66.543404"
         y="112.014"
         sodipodi:role="line"
         id="tspan126">CIUDADANÍA</tspan></text>
<text
       transform="matrix(1,0,0,-1,367.7581,407.657)"
       style="font-variant:normal;font-weight:bold;font-stretch:normal;font-size:17px;font-family:Apercu;-inkscape-font-specification:Apercu-Bold;writing-mode:lr-tb;fill:#3b31f5;fill-opacity:1;fill-rule:nonzero;stroke:none"
       id="text132"><tspan
         x="0 12.495 23.103001 31.399 40.952999 53.0723 62.388302 67.539299 78.487297"
         y="0"
         sodipodi:role="line"
         id="tspan130">OBJECTIUS</tspan></text>
<text
       transform="matrix(1,0,0,-1,289.6719,383.1531)"
       style="font-variant:normal;font-weight:bold;font-stretch:normal;font-size:12px;font-family:Apercu;-inkscape-font-specification:Apercu-Bold;writing-mode:lr-tb;fill:#ffffff;fill-opacity:1;fill-rule:nonzero;stroke:none"
       id="text146"><tspan
         x="0 8.9040003 16.115999 20.76 27.396 34.391998 41.015999 46.080002 49.056 55.835999 62.880001 65.856003 72.012001 79.103996 86.220001 89.447998 96.071999 101.136 108.132 115.308 118.284 128.61481 134.78281 140.25481 143.2308 149.2908 156.4068 159.6348 166.2588 171.8748 176.5188 183.69479 186.67081 192.44279 195.41879 202.09081 208.9548 215.5668 218.79359 225.4296 232.4736 237.1176 243.7896"
         y="0"
         sodipodi:role="line"
         id="tspan134">Obtener un gobierno más abierto y efciente </tspan><tspan
         x="0.456 6.552 13.692 16.872 20.1 26.771999 32.736 39.731998 46.776001 53.952 56.928001 61.571999 68.496002 75.108002 82.102798 89.230797 92.518799 99.658798 105.9348 109.1988 115.3668 118.3428 125.5548 131.55479 136.6908 142.8588 145.83479 149.1348 155.3028 158.27879 162.9828 168.1188 174.0816 181.01759 186.48959 190.7016 197.70959 202.77361 213.10561 219.4176 226.0296 229.2576 236.30161 243.3456"
         y="15.996"
         sodipodi:role="line"
         id="tspan136">aplicando tecnología para la transformación </tspan><tspan
         x="81.540001 87.311996 90.288002 93.587997 99.755997 102.732 105.588 112.416 119.412 126.48 132.01199 138.32401 144.936 148.1628 155.2068"
         y="31.992001"
         sodipodi:role="line"
         id="tspan138">y la innovación</tspan><tspan
         x="1.704 9.9720001 16.643999 22.115999 28.115999 33.18 38.268002 45.396 48.335999 51.636002 57.636002 62.700001 65.676003 72.300003 75.636002 78.612 83.255997 90.047997 93 96.227997 103.272 110.448 113.424 118.8348 126.0948 132.7068 135.9348 143.19479 150.1188 156.8268 163.8708 170.86681 177.9948 188.25481 191.4828 198.18961 205.3656 208.3416 215.32561 218.3856 224.66161 227.9016 232.6776 238.7496"
         y="65.003998"
         sodipodi:role="line"
         id="tspan140">Desarrollar el tejido socioeconómico digital</tspan><tspan
         x="21.948 27.719999 30.695999 37.740002 44.363998 47.700001 50.675999 57.599998 64.307999 71.424004 76.739998 79.835999 85.223999 89.867996 96.540001 106.872 113.04 116.016 123.06 129.73199 132.70799 135.564 142.392 149.3868 156.45599 161.98801 168.2988 174.9108 178.13879 185.1828 192.22681 195.2028 198.4908 205.75079 212.42281 218.4948 221.8308"
         y="81"
         sodipodi:role="line"
         id="tspan142">y del ecosistema de innovación local </tspan><tspan
         x="30.252001 37.152 47.436001 54.708 61.967999 69.012001 75.636002 80.772003 86.856003 97.115997 100.344 106.98 114.024 118.668 125.844 128.82001 135.864 142.536 145.51199 148.812 154.98 160.452 163.42799 170.69881 177.3228 182.3868 187.7988 194.8428 201.8868 208.05479"
         y="121.5"
         sodipodi:role="line"
         id="tspan144">Empoderamiento de las personas</tspan></text>
<g
       id="g148"
       transform="translate(253.3615,369.4253)"><path
         d="M 0,0 H -33.149"
         style="fill:none;stroke:#3b31f5;stroke-width:3;stroke-linecap:butt;stroke-linejoin:miter;stroke-miterlimit:4;stroke-dasharray:none;stroke-opacity:1"
         id="path150"
         inkscape:connector-curvature="0" /></g><g
       id="g152"
       transform="translate(261.748,369.4253)"><path
         d="M 0,0 -13.888,5.054 V -5.054 Z"
         style="fill:#3b31f5;fill-opacity:1;fill-rule:nonzero;stroke:none"
         id="path154"
         inkscape:connector-curvature="0" /></g><g
       id="g156"
       transform="translate(253.3615,314.5908)"><path
         d="M 0,0 H -33.149"
         style="fill:none;stroke:#3b31f5;stroke-width:3;stroke-linecap:butt;stroke-linejoin:miter;stroke-miterlimit:4;stroke-dasharray:none;stroke-opacity:1"
         id="path158"
         inkscape:connector-curvature="0" /></g><g
       id="g160"
       transform="translate(261.748,314.5908)"><path
         d="M 0,0 -13.888,5.054 V -5.054 Z"
         style="fill:#3b31f5;fill-opacity:1;fill-rule:nonzero;stroke:none"
         id="path162"
         inkscape:connector-curvature="0" /></g><g
       id="g164"
       transform="translate(253.3615,264.7168)"><path
         d="M 0,0 H -33.149"
         style="fill:none;stroke:#3b31f5;stroke-width:3;stroke-linecap:butt;stroke-linejoin:miter;stroke-miterlimit:4;stroke-dasharray:none;stroke-opacity:1"
         id="path166"
         inkscape:connector-curvature="0" /></g><g
       id="g168"
       transform="translate(261.748,264.7168)"><path
         d="M 0,0 -13.888,5.054 V -5.054 Z"
         style="fill:#3b31f5;fill-opacity:1;fill-rule:nonzero;stroke:none"
         id="path170"
         inkscape:connector-curvature="0" /></g></g></svg>